<svg width="46" height="45" viewBox="0 0 46 45" fill="none" xmlns="http://www.w3.org/2000/svg">
<path d="M20.3505 6.68059C20.4759 6.78187 20.6209 6.83059 20.7646 6.83059C20.9855 6.83059 21.2031 6.7154 21.3419 6.49874L23.0054 3.90188C23.2343 3.54438 23.1619 3.04615 22.8434 2.78915C22.5248 2.53214 22.081 2.61341 21.852 2.971L20.1886 5.56796C19.9596 5.92546 20.0322 6.42359 20.3505 6.68059Z" fill="black"/>
<path d="M6.48471 17.0415C6.52556 17.3265 6.57828 17.6118 6.64163 17.8894C6.72378 18.2497 7.01249 18.4891 7.32923 18.4891C7.38757 18.4891 7.44688 18.481 7.50592 18.4641C7.88592 18.3549 8.11506 17.9206 8.0178 17.4939C7.96526 17.2633 7.92133 17.0259 7.88741 16.7887C7.28416 12.5721 9.83468 8.58865 13.5729 7.90886C15.6068 7.53914 17.6604 8.20897 19.2079 9.74665C19.5018 10.0386 19.9506 10.0078 20.2106 9.67811C20.4705 9.34842 20.4432 8.84457 20.1495 8.55265C18.2817 6.69663 15.8017 5.88824 13.3458 6.33489C8.83526 7.15511 5.75748 11.9581 6.48471 17.0415Z" fill="black"/>
<path d="M12.3057 4.08599C12.3617 4.4779 12.6634 4.757 13.0061 4.757C13.0435 4.757 13.0815 4.75374 13.1195 4.74674C13.5069 4.67692 13.7704 4.26794 13.7082 3.83322L13.2558 0.670877C13.1936 0.236061 12.8287 -0.0596008 12.4419 0.0101235C12.0546 0.0799464 11.7911 0.488923 11.8533 0.92364L12.3057 4.08599Z" fill="black"/>
<path d="M41.0464 13.651C38.0336 10.2341 34.0461 8.35246 29.8185 8.35246C24.0549 8.35246 18.7363 11.8858 15.9381 17.5736C15.7485 17.959 15.8732 18.444 16.2166 18.657C16.5601 18.8699 16.9921 18.7298 17.1817 18.3444C19.73 13.1648 24.5722 9.94705 29.8186 9.94705C33.6639 9.94705 37.2927 11.6609 40.0368 14.7726C42.8005 17.9069 44.3005 22.0382 44.2604 26.4057C44.1826 34.9011 38.2357 41.9653 30.7217 42.4878C30.6858 42.4903 30.3274 42.503 30.0731 42.5118C29.9033 42.5177 29.7335 42.5205 29.5636 42.5205H11.8246C6.52696 42.5205 2.17247 37.6611 2.11774 31.6881C2.09094 28.7604 3.08878 25.991 4.92745 23.8905C6.75241 21.8057 9.17615 20.6458 11.7522 20.6247C12.7437 20.6155 13.7738 20.7939 14.8079 21.1518C15.3901 21.3532 16.6102 22.0335 16.9629 22.2822C19.8239 24.2995 21.5318 27.7724 21.5318 31.5724C21.5318 32.0128 21.8499 32.3697 22.2421 32.3697C22.6344 32.3697 22.9523 32.0127 22.9523 31.5724C22.9523 27.2206 20.9959 23.2429 17.7187 20.9321C17.2979 20.6353 15.956 19.8804 15.2264 19.628C14.0532 19.2221 12.8814 19.0202 11.7419 19.0301C8.78552 19.0545 6.00559 20.3837 3.91415 22.773C1.8089 25.1778 0.666532 28.3499 0.697196 31.7045C0.727596 35.0263 1.89826 38.1441 3.99331 40.4834C6.09082 42.8253 8.87198 44.115 11.8245 44.115H29.7609C29.7992 44.115 29.7875 44.1155 29.8259 44.1149C30.5834 44.102 31.405 44.0455 32.1523 43.9213C35.6368 43.3422 38.8475 41.4727 41.3053 38.565C44.0852 35.2762 45.639 30.9637 45.6806 26.4221C45.7248 21.6256 44.0789 17.0901 41.0464 13.651Z" fill="black"/>
<path d="M1.57534 18.7326C1.61303 18.7326 1.65142 18.7292 1.68973 18.7221L4.49461 18.2121C4.88182 18.1417 5.14496 17.7322 5.08214 17.2976C5.01941 16.8629 4.65452 16.5676 4.2674 16.6381L1.46252 17.1482C1.07523 17.2186 0.812174 17.6281 0.874994 18.0627C0.931665 18.4542 1.23303 18.7326 1.57534 18.7326Z" fill="black"/>
<path d="M3.50012 7.44801L5.80331 9.32347C5.9293 9.42603 6.07524 9.47544 6.21977 9.47544C6.4396 9.47544 6.65636 9.36124 6.79526 9.14625C7.02555 8.78984 6.95491 8.29141 6.63738 8.03273L4.33418 6.15737C4.01665 5.89889 3.5726 5.97828 3.34214 6.33459C3.11195 6.69101 3.18259 7.18953 3.50012 7.44801Z" fill="black"/>
</svg>
