<svg width="62" height="66" viewBox="0 0 62 66" fill="none" xmlns="http://www.w3.org/2000/svg">
<path d="M21.1582 15.0113C23.6561 15.0113 26.0396 13.7321 27.4198 11.6449C28.8203 9.53075 29.0492 6.77026 28.019 4.45414C27.0158 2.19862 24.895 0.542326 22.4577 0.11142C19.9665 -0.326218 17.3811 0.542326 15.6574 2.39387C13.9338 4.24542 13.2538 6.90492 13.8799 9.36243C14.4859 11.7526 16.2971 13.7388 18.6199 14.5737C19.4346 14.8632 20.2964 15.0113 21.1582 15.0113Z" fill="white"/>
<path d="M44.5079 15.0113C47.0058 15.0113 49.3892 13.7321 50.7695 11.6449C52.1699 9.53075 52.3988 6.77026 51.3687 4.45414C50.3655 2.19189 48.2514 0.535593 45.814 0.11142C43.3229 -0.326218 40.7374 0.542326 39.0138 2.39387C37.2902 4.24542 36.6102 6.90492 37.2363 9.36243C37.8423 11.7526 39.6534 13.7388 41.9763 14.5737C42.7842 14.8632 43.6461 15.0113 44.5079 15.0113Z" fill="white"/>
<path d="M58.4652 31.1501C58.5864 30.0594 58.6066 28.9619 58.6201 27.8645C58.5864 26.8613 58.5729 25.8379 58.4113 24.8481C58.2161 23.2995 57.8525 21.7442 57.2667 20.2967L57.0311 19.7176C56.7618 19.1453 56.4723 18.5932 56.1626 18.0411C55.5095 16.9773 54.7554 16.0011 53.8599 15.1325C53.5637 14.8632 53.2809 14.5939 52.9779 14.3582C52.6884 14.1091 52.3787 13.9004 52.0891 13.6917C51.7121 13.4426 51.3283 13.2002 50.9311 12.9847C48.9449 15.1595 45.9218 16.1896 43.0199 15.6779C41.1414 15.3413 39.4044 14.3784 38.1184 12.9645C38.0106 13.0184 37.9096 13.079 37.8019 13.1463C37.5124 13.3079 37.2162 13.5032 36.9199 13.6984C36.6304 13.9071 36.3207 14.1226 36.0312 14.365C35.7282 14.6006 35.4454 14.87 35.1492 15.1393C34.2537 16.0145 33.4996 16.9841 32.8465 18.0479C32.8398 18.0613 32.833 18.0748 32.8263 18.0815C32.8196 18.0681 32.8128 18.0546 32.8061 18.0479C32.153 16.9841 31.3989 16.0078 30.5035 15.1393C30.2072 14.87 29.9244 14.6006 29.6214 14.365C29.3319 14.1159 29.0222 13.9071 28.7327 13.6984C28.4297 13.5032 28.1402 13.3079 27.8507 13.1463C27.743 13.0857 27.6352 13.0251 27.5342 12.9645C25.5548 15.146 22.5452 16.1896 19.6433 15.6846C17.7581 15.3615 16.0142 14.3986 14.7283 12.9847C14.331 13.2002 13.954 13.4493 13.5702 13.6917C13.2807 13.9004 12.971 14.1159 12.6815 14.3582C12.3785 14.5939 12.0957 14.8632 11.7994 15.1325C10.9107 16.0078 10.1499 16.9841 9.49679 18.0411C9.18708 18.5932 8.9043 19.1453 8.62825 19.7176L8.3926 20.2967C7.80683 21.7442 7.43652 23.2995 7.248 24.8481C7.08641 25.8446 7.07295 26.8613 7.03928 27.8645C7.05948 28.9888 7.07968 30.1132 7.20087 31.2376C5.74656 31.8369 4.71643 33.271 4.71643 34.9407V64.0403C4.71643 64.6732 5.2416 65.1984 5.87449 65.1984C6.50738 65.1984 7.03255 64.6732 7.03255 64.0403V34.9407C7.03255 34.355 7.3288 33.8433 7.7799 33.5336C8.36566 34.2944 9.38907 34.5974 10.2913 34.2809C10.3586 34.4425 10.4057 34.6176 10.4192 34.7926C10.4327 34.9475 10.4259 35.0956 10.4663 35.2437C10.5404 35.513 10.7154 35.7554 10.9511 35.9103C11.4628 36.2469 12.1765 36.1123 12.5333 35.6073C12.7151 36.9943 13.2268 38.2937 14.0011 39.4114L15.0986 63.5084C15.1592 64.781 16.1624 65.8448 17.4282 65.9794C18.7209 66.1074 19.9328 65.2321 20.229 63.973C20.2627 63.8249 20.2829 63.67 20.2896 63.5152L21.1582 45.094L21.9863 63.5017C22.0402 64.7675 23.0501 65.8448 24.3159 65.9727C25.6086 66.1073 26.8273 65.2253 27.1168 63.9663C27.1505 63.8182 27.1707 63.6633 27.1774 63.5084L28.3287 39.2902C29.507 37.5262 29.985 35.3582 29.6955 33.2575L27.9651 21.1383C27.9786 21.1517 27.9921 21.1719 27.9988 21.1854C28.1469 21.4009 28.3085 21.6029 28.4432 21.8385L28.6586 22.1819L28.8472 22.5455C29.3791 23.5419 29.7426 24.6327 29.9918 25.7301C30.2072 26.5044 30.288 27.3258 30.3957 28.1203C30.4025 28.1674 30.5775 30.3826 30.5304 32.0523V32.16C30.5169 33.4124 31.5875 34.4492 32.833 34.4021C34.0854 34.4492 35.1492 33.4124 35.1357 32.16V32.0523C35.0347 30.7192 35.2636 28.1674 35.2703 28.1203C35.3781 27.3258 35.4589 26.5044 35.6743 25.7301C35.9234 24.6327 36.287 23.5352 36.8189 22.5455L37.0074 22.1819L37.2229 21.8385C37.3575 21.6029 37.5191 21.4009 37.6673 21.1854C37.6807 21.1719 37.6942 21.1517 37.7009 21.1383L35.9706 33.2575C35.9234 33.5942 35.8965 33.9443 35.8898 34.2944C34.9472 37.2367 34.1662 40.2261 33.5737 43.2559C32.9004 46.7166 32.4762 50.2312 32.4493 53.7592C32.4493 54.1632 32.4964 54.5335 32.7792 54.8567C33.0283 55.1462 33.3986 55.3145 33.7824 55.3145H38.1857L38.5762 63.5219C38.6435 64.8146 39.6871 65.8919 40.9799 65.9929C42.2456 66.0872 43.4306 65.2186 43.7134 63.973C43.7471 63.8249 43.7673 63.67 43.774 63.5152L44.1443 55.3145H45.0802L45.464 63.5152C45.5313 64.8079 46.5749 65.8852 47.8609 65.9862C49.1267 66.0804 50.3117 65.2119 50.5944 63.9663C50.6281 63.8182 50.6483 63.6633 50.655 63.5084L51.0321 55.3078H55.4017C55.7653 55.3078 56.1222 55.1529 56.3713 54.8836C56.6339 54.6008 56.7281 54.244 56.7281 53.8669C56.7214 52.9647 56.6945 52.0625 56.6339 51.167C56.5261 49.3963 56.3309 47.6323 56.0548 45.875C55.5566 42.6566 54.8227 39.4854 53.9138 36.3614C53.8397 36.0988 53.7589 35.8362 53.6781 35.5736C53.9609 36.1459 54.688 36.3883 55.2536 36.0853C55.5095 35.9507 55.7114 35.715 55.8057 35.439C55.8596 35.2841 55.8596 35.1293 55.873 34.9677C55.8865 34.7791 55.9269 34.5906 56.001 34.4156C56.8089 34.456 57.5495 34.0587 57.9737 33.4191C58.7143 33.6009 59.2664 34.2674 59.2664 35.0619V64.1615C59.2664 64.7944 59.7916 65.3196 60.4245 65.3196C61.0574 65.3196 61.5825 64.7944 61.5825 64.1615V35.0552C61.5691 33.1498 60.2427 31.5541 58.4652 31.1501ZM12.5535 33.2575C12.5401 33.3652 12.5266 33.4797 12.5131 33.5874C12.3448 33.1229 12.0957 32.6987 11.7792 32.3351C11.786 32.2812 11.786 32.2274 11.786 32.1735V32.0591C11.7792 31.5272 11.759 30.9953 11.7792 30.4634C11.8062 29.6823 11.8533 28.9081 11.9206 28.127C12.0284 27.3326 12.1092 26.5111 12.3246 25.7369C12.5737 24.6394 12.9373 23.5419 13.4692 22.5522L13.6645 22.1886L13.8799 21.8452C13.9944 21.6365 14.1358 21.4547 14.2704 21.2662L12.5535 33.2575ZM53.5569 35.0552C53.5569 35.1091 53.5637 35.1562 53.5704 35.2101C53.4425 34.7993 53.3213 34.4021 53.1933 34.0116C53.1799 33.7625 53.1529 33.5066 53.1193 33.2575L51.4024 21.2662C51.537 21.4547 51.6784 21.6365 51.7929 21.8452L52.0084 22.1886L52.2036 22.5522C52.7355 23.5419 53.0991 24.6394 53.3482 25.7369C53.5636 26.5111 53.6444 27.3326 53.7522 28.127C53.8195 28.9081 53.8666 29.6823 53.8936 30.4634C53.9138 30.9953 53.8936 31.5272 53.8868 32.0591V32.1735C53.8868 32.4967 53.9542 32.8064 54.0821 33.0892C53.7454 33.6682 53.5569 34.3348 53.5569 35.0552Z" fill="white"/>
<path d="M54.5938 13.4291C55.0718 14.1293 55.7586 14.769 56.479 15.2133L56.58 15.2739L56.6541 15.2268C56.9503 15.0517 57.2264 14.8228 57.489 14.5939C57.8525 14.2775 58.1959 13.9273 58.4854 13.5368C58.7413 13.1867 58.9769 12.7693 58.9971 12.3249C59.0173 11.8671 58.7615 11.49 58.3912 11.2409C57.9064 10.9177 57.3341 10.9985 56.8561 11.2948C56.8291 11.315 56.5733 11.5035 56.5666 11.5035C56.5127 11.4631 56.4588 11.416 56.405 11.3756C56.1693 11.2072 55.9067 11.0793 55.6172 11.0389C55.0718 10.9581 54.4861 11.2948 54.2504 11.793C54.0013 12.3518 54.2841 12.9645 54.5938 13.4291C54.7823 13.6984 54.4255 13.18 54.5938 13.4291ZM54.6005 11.7459C54.8631 11.4362 55.2469 11.2611 55.6509 11.3621C55.3412 11.4496 55.0314 11.7122 54.9237 12.0152C54.7958 12.3788 54.9641 12.7558 55.1324 13.0723C55.496 13.7658 56.0145 14.3986 56.5396 14.9709C56.102 14.6478 55.6845 14.2842 55.3142 13.8869C54.8295 13.3887 54.008 12.4528 54.6005 11.7459C54.6746 11.6584 54.4659 11.9007 54.6005 11.7459Z" fill="white"/>
<path d="M56.883 10.8975C56.8628 10.534 56.9772 10.1838 57.3004 9.98859C57.6505 9.77987 58.068 9.73947 58.4181 9.96166C57.9468 9.93472 57.4418 10.2444 57.3543 10.7292C57.4755 10.7023 57.5899 10.6888 57.7111 10.6888H57.7179C58.4114 10.6888 59.1116 11.214 59.2934 11.8873C59.4752 12.5538 59.1318 13.2406 58.748 13.7657C59.2597 13.584 59.7647 13.355 60.2225 13.0588C60.6534 12.7827 61.1045 12.4259 61.2863 11.9411C61.4816 11.4227 61.2459 10.8302 60.8217 10.5003C60.5053 10.2512 60.0879 10.204 59.6973 10.2781C59.5964 10.2983 59.4954 10.3185 59.3944 10.3522C59.3338 10.3724 59.2597 10.4397 59.2193 10.3724C59.1318 10.2377 59.0442 10.1165 58.9365 10.0021C58.5056 9.55095 57.9199 9.40282 57.3408 9.66541C56.7887 9.91453 56.58 10.4532 56.6339 11.0389C56.7281 10.9851 56.8022 10.9379 56.883 10.8975C56.8695 10.7359 56.8022 10.9379 56.883 10.8975Z" fill="white"/>
<path d="M7.19418 4.0165C6.43336 3.70005 5.64561 3.76065 4.97232 4.24542C4.60874 4.508 4.2923 4.85811 4.13744 5.28902C3.84792 6.11043 4.20477 6.99244 4.64241 7.68593C5.12044 8.45349 5.76007 9.12678 6.42663 9.73274C6.92486 10.1838 7.45676 10.6282 8.03579 10.9716L8.16372 11.0524L8.33204 10.9447C9.05919 10.5003 9.71902 9.92799 10.325 9.3355C10.9242 8.74973 11.4898 8.09664 11.887 7.35602C12.2641 6.64907 12.4862 5.77379 12.0823 5.02644C11.7052 4.33295 10.904 3.80105 10.1028 3.80105C9.47663 3.80105 8.8774 4.0771 8.3859 4.44741C8.33877 4.4878 8.29164 4.5282 8.23778 4.5686C8.21758 4.5888 8.19065 4.609 8.16372 4.62246C8.15698 4.6292 8.01559 4.50127 8.00213 4.4878C7.75974 4.29928 7.48369 4.13769 7.19418 4.0165C6.8912 3.88858 7.43656 4.11749 7.19418 4.0165ZM8.66195 10.0626C9.4497 9.14697 10.2442 8.16397 10.7626 7.05977C11.005 6.55481 11.1935 5.98251 10.9781 5.43714C10.7828 4.94564 10.2711 4.51474 9.75941 4.37335C10.1701 4.27235 10.5876 4.31948 10.9511 4.53493C11.2878 4.73019 11.6042 5.00624 11.7658 5.36981C11.988 5.85458 11.8937 6.37975 11.685 6.84432C11.2676 7.78019 10.5068 8.56121 9.76615 9.2547C9.28138 9.71254 8.76968 10.1434 8.23778 10.5407C8.3859 10.3791 8.52056 10.2242 8.66195 10.0626C8.99186 9.67214 8.52056 10.2242 8.66195 10.0626Z" fill="white"/>
<path d="M4.85116 3.61926C5.2686 3.35668 5.7399 3.22202 6.22467 3.22202H6.23814C6.43339 3.22202 6.64211 3.24895 6.8441 3.28935C6.70271 2.4612 5.8409 1.93604 5.03295 1.98317C5.61871 1.61286 6.3122 1.66672 6.9047 2.00337C7.48373 2.33328 7.69918 2.94597 7.65878 3.5856C7.79344 3.65293 7.92136 3.72699 8.04929 3.80779C8.12335 3.02004 7.93483 2.19862 7.26827 1.70712C6.60845 1.22908 5.69951 1.06749 4.95215 1.4176C4.58184 1.59266 4.2654 1.86198 4.00281 2.17169C3.90182 2.28615 3.80756 2.40734 3.72676 2.53527C3.69983 2.5824 3.6729 2.62279 3.64597 2.66992C3.59884 2.74399 3.59884 2.72379 3.51131 2.69012C2.75049 2.39388 1.80115 2.31981 1.08073 2.77765C0.575765 3.0941 0.185257 3.67313 0.0505987 4.25889C-0.0638607 4.71673 0.023667 5.18803 0.23912 5.60547C0.737355 6.56154 1.75402 7.20117 2.67643 7.69267C3.24873 7.99565 3.85469 8.25823 4.46738 8.47369C3.88162 7.68594 3.36992 6.70967 3.45745 5.69973C3.53824 4.80426 4.11054 4.09057 4.85116 3.61926C5.2686 3.35668 3.67963 4.35988 4.85116 3.61926Z" fill="white"/>
</svg>
