<svg width="64" height="64" viewBox="0 0 64 64" fill="none" xmlns="http://www.w3.org/2000/svg">
<path d="M48.4168 12.5371V10.2855C48.4168 9.57668 47.879 8.99988 47.2182 8.99988H43.5252C42.8644 8.99988 42.3266 9.57668 42.3266 10.2855V12.5371H31.7466H21.1666V10.2855C21.1666 9.57668 20.6289 8.99988 19.968 8.99988H16.2751C15.6142 8.99988 15.0765 9.57668 15.0765 10.2855V12.5371H6.99083L0.00012207 20.5638V22.1691H1.24407V62.5454C1.24407 63.2543 1.78181 63.8311 2.44266 63.8311H31.7466H61.0506C61.7115 63.8311 62.2492 63.2543 62.2492 62.5454V22.176H63.4931V20.5707L56.5024 12.5371H48.4168ZM13.7742 55.5056H9.58239V50.5229H13.7742V55.5056ZM13.7742 33.6565H9.58239V28.6807H13.7742V33.6565ZM36.0162 61.2876H31.7466H27.4771V45.3038C28.8247 43.7749 31.7466 43.5387 31.7466 43.5387C31.7466 43.5387 34.6686 43.7749 36.0162 45.3038V61.2876ZM37.1371 34.5391H31.7466H26.3562V25.7828C28.5266 24.1844 31.7466 24.1844 31.7466 24.1844C31.7466 24.1844 34.9666 24.1844 37.1371 25.7898V34.5391ZM38.3357 21.6409H31.7466H25.1576C24.4968 21.6409 24.3737 21.2726 24.8725 20.814L30.8331 15.4073C31.3385 14.9486 32.1613 14.9486 32.6602 15.4073L38.6207 20.814C39.1196 21.2657 38.9965 21.6409 38.3357 21.6409ZM53.9044 55.5056H49.7126V50.5229H53.9044V55.5056ZM53.9044 33.6565H49.7126V28.6807H53.9044V33.6565Z" fill="white"/>
<path d="M30.2252 1.20694C29.7 1.74322 29.5005 2.15875 29.5005 2.79293C29.5005 3.62182 29.4503 3.67077 28.6509 3.67077C27.4501 3.67077 26.5001 4.47573 26.5001 5.52435C26.5001 6.64695 27.2248 7.32899 28.4758 7.32899H29.4258L29.5752 8.47551C29.7257 9.79282 30.4002 10.4999 31.5007 10.4999C32.6011 10.4999 33.2757 9.79282 33.4262 8.47551L33.5756 7.32899H34.5255C35.7754 7.32899 36.5001 6.64586 36.5001 5.52435C36.5001 4.47573 35.5502 3.67077 34.3505 3.67077C33.55 3.67077 33.4998 3.62182 33.4998 2.79293C33.4998 1.79325 32.3748 0.499881 31.4996 0.499881C31.2008 0.498793 30.6254 0.816426 30.2252 1.20694Z" fill="white"/>
</svg>
