<svg width="65" height="65" viewBox="0 0 65 65" fill="none" xmlns="http://www.w3.org/2000/svg">
<path d="M25.3328 0.26384C25.0257 0.40313 24.6078 0.696289 24.3989 0.919151C23.5625 1.81126 23.5904 1.3934 23.5904 12.7288C23.5904 22.6004 23.5764 23.1164 23.3396 23.3254C23.1028 23.5482 22.1544 23.5622 12.7013 23.5622C2.89937 23.5622 2.29977 23.5761 1.77047 23.8268C1.0873 24.1478 0.52948 24.7189 0.250903 25.4021C-0.08339 26.1828 -0.08339 38.7871 0.250903 39.5678C0.52948 40.2509 1.0873 40.8227 1.77047 41.143C2.30043 41.3944 2.90004 41.4084 12.7292 41.4084C22.6286 41.4084 23.1446 41.4223 23.3536 41.6591C23.5764 41.8959 23.5904 42.8444 23.5904 52.2974C23.5904 62.0993 23.6043 62.6989 23.855 63.2282C23.9943 63.5353 24.2875 63.9532 24.5103 64.1621C25.3746 64.9707 25.3606 64.9707 32.5413 64.9707C38.662 64.9707 39.1781 64.9428 39.6934 64.7054C40.0005 64.5661 40.4184 64.2729 40.628 64.05C41.4644 63.1573 41.4365 63.5758 41.4365 52.2404C41.4365 42.3688 41.4505 41.8527 41.6873 41.6438C41.924 41.421 42.8725 41.407 52.3256 41.407C62.1275 41.407 62.7271 41.3931 63.2564 41.1417C63.5635 41.0024 63.9814 40.7093 64.1903 40.4864C65.0002 39.6248 65.0002 39.6387 65.0002 32.4581C65.0002 26.3373 64.9723 25.8213 64.7349 25.3053C64.5956 24.9982 64.3024 24.5803 64.0796 24.3714C63.1868 23.535 63.6053 23.5628 52.2699 23.5628C42.3983 23.5628 41.8823 23.5489 41.6733 23.3121C41.4498 23.0753 41.4365 22.1408 41.4365 12.7016C41.4365 1.40799 41.4644 1.81259 40.628 0.919815C40.4191 0.696953 40.0005 0.403786 39.6934 0.264496C39.1774 0.02771 38.662 -0.000152588 32.5128 -0.000152588C26.3649 -0.000816345 25.8488 0.0270462 25.3328 0.26384Z" fill="white"/>
</svg>
