<svg width="40" height="25" viewBox="0 0 40 25" fill="none" xmlns="http://www.w3.org/2000/svg">
<path d="M27.2729 10.7142C30.291 10.7142 32.7092 8.32131 32.7092 5.35702C32.7092 2.39274 30.291 -0.00012207 27.2729 -0.00012207C24.2547 -0.00012207 21.8183 2.39274 21.8183 5.35702C21.8183 8.32131 24.2547 10.7142 27.2729 10.7142ZM12.7274 10.7142C15.7456 10.7142 18.1638 8.32131 18.1638 5.35702C18.1638 2.39274 15.7456 -0.00012207 12.7274 -0.00012207C9.70921 -0.00012207 7.27285 2.39274 7.27285 5.35702C7.27285 8.32131 9.70921 10.7142 12.7274 10.7142ZM12.7274 14.2856C8.49103 14.2856 0.00012207 16.3749 0.00012207 20.5356V24.9999H25.4547V20.5356C25.4547 16.3749 16.9638 14.2856 12.7274 14.2856ZM27.2729 14.2856C26.7456 14.2856 26.1456 14.3213 25.5092 14.3749C27.6183 15.8749 29.091 17.8927 29.091 20.5356V24.9999H40.0001V20.5356C40.0001 16.3749 31.5092 14.2856 27.2729 14.2856Z" fill="black"/>
</svg>
