<svg width="98" height="40" viewBox="0 0 98 40" fill="none" xmlns="http://www.w3.org/2000/svg">
<path d="M14.0534 39.7127C12.3192 39.7127 10.6007 39.5341 8.89807 39.177C7.22693 38.8556 5.74497 38.427 4.4522 37.8913C3.15942 37.3556 2.22926 36.8199 1.6617 36.2841V25.0877C2.85988 25.8377 4.19995 26.5163 5.68191 27.1234C7.16386 27.7306 8.66159 28.2127 10.1751 28.5699C11.7201 28.8913 13.1863 29.052 14.5737 29.052C16.497 29.052 17.4587 28.552 17.4587 27.552C17.4587 27.052 17.2538 26.6413 16.8439 26.3199C16.4655 25.9627 15.7876 25.5877 14.8101 25.1949C13.8327 24.802 12.4453 24.302 10.648 23.6949C8.56699 22.9449 6.78549 22.1591 5.30353 21.3377C3.85311 20.5163 2.73376 19.4627 1.94548 18.177C1.18874 16.8913 0.810364 15.177 0.810364 13.0341C0.810364 9.31985 2.1189 6.33771 4.73598 4.08771C7.35305 1.83771 11.1841 0.712708 16.229 0.712708C17.238 0.712708 18.3101 0.766279 19.4452 0.873423C20.6118 0.944851 21.542 1.05199 22.2357 1.19485L28.0532 5.64128L25.6883 13.7841L13.5804 10.302C12.3192 10.302 11.6886 10.7841 11.6886 11.7484C11.6886 12.4984 12.0827 13.1234 12.871 13.6234C13.6908 14.0877 15.157 14.7306 17.2696 15.552C20.0758 16.6234 22.2988 17.7306 23.9384 18.8734C25.6095 19.9806 26.8077 21.2484 27.5329 22.677C28.2581 24.1056 28.6207 25.802 28.6207 27.7663C28.6207 31.3377 27.4068 34.2306 24.9789 36.4449C22.551 38.6234 18.9092 39.7127 14.0534 39.7127Z" fill="white"/>
<path d="M49.2328 39.7127C47.2148 39.7127 45.1968 39.4449 43.1788 38.9091C41.1924 38.3377 39.3636 37.3377 37.6924 35.9091C36.0528 34.4806 34.7285 32.4984 33.7195 29.9627C32.7105 27.427 32.206 24.177 32.206 20.2127C32.206 16.2484 32.7105 12.9984 33.7195 10.4627C34.7285 7.92699 36.0528 5.94485 37.6924 4.51628C39.3636 3.08771 41.1924 2.10557 43.1788 1.56985C45.1968 0.998422 47.2148 0.712708 49.2328 0.712708C51.2508 0.712708 53.253 0.998422 55.2394 1.56985C57.2574 2.14128 59.0862 3.14128 60.7258 4.56985C62.397 5.99842 63.737 7.98057 64.746 10.5163C65.755 13.052 66.2595 16.2841 66.2595 20.2127C66.2595 24.1413 65.755 27.3734 64.746 29.9091C63.737 32.4449 62.397 34.427 60.7258 35.8556C59.0862 37.2841 57.2574 38.2841 55.2394 38.8556C53.253 39.427 51.2508 39.7127 49.2328 39.7127ZM49.2328 28.9984C51.2823 28.9984 52.8273 28.302 53.8678 26.9091C54.9083 25.4806 55.4286 23.2484 55.4286 20.2127C55.4286 17.2127 54.9083 14.9984 53.8678 13.5699C52.8273 12.1413 51.2823 11.427 49.2328 11.427C45.1337 11.427 43.0842 14.3556 43.0842 20.2127C43.0842 23.2127 43.5887 25.427 44.5977 26.8556C45.6382 28.2841 47.1833 28.9984 49.2328 28.9984Z" fill="white"/>
<path d="M83.243 39.7127C81.5088 39.7127 79.7904 39.5341 78.0877 39.177C76.4166 38.8556 74.9346 38.427 73.6418 37.8913C72.3491 37.3556 71.4189 36.8199 70.8513 36.2841V25.0877C72.0495 25.8377 73.3896 26.5163 74.8716 27.1234C76.3535 27.7306 77.8512 28.2127 79.3647 28.5699C80.9097 28.8913 82.3759 29.052 83.7633 29.052C85.6867 29.052 86.6484 28.552 86.6484 27.552C86.6484 27.052 86.4434 26.6413 86.0335 26.3199C85.6552 25.9627 84.9772 25.5877 83.9998 25.1949C83.0223 24.802 81.6349 24.302 79.8377 23.6949C77.7566 22.9449 75.9751 22.1591 74.4932 21.3377C73.0427 20.5163 71.9234 19.4627 71.1351 18.177C70.3784 16.8913 70 15.177 70 13.0341C70 9.31985 71.3085 6.33771 73.9256 4.08771C76.5427 1.83771 80.3737 0.712708 85.4187 0.712708C86.4277 0.712708 87.4997 0.766279 88.6348 0.873423C89.8015 0.944851 90.7317 1.05199 91.4253 1.19485L97.2428 5.64128L94.878 13.7841L82.7701 10.302C81.5088 10.302 80.8782 10.7841 80.8782 11.7484C80.8782 12.4984 81.2723 13.1234 82.0606 13.6234C82.8804 14.0877 84.3466 14.7306 86.4592 15.552C89.2655 16.6234 91.4884 17.7306 93.128 18.8734C94.7992 19.9806 95.9973 21.2484 96.7225 22.677C97.4478 24.1056 97.8104 25.802 97.8104 27.7663C97.8104 31.3377 96.5964 34.2306 94.1685 36.4449C91.7406 38.6234 88.0988 39.7127 83.243 39.7127Z" fill="white"/>
</svg>
