<svg width="225" height="85" viewBox="0 0 225 85" fill="none" xmlns="http://www.w3.org/2000/svg">
<path d="M68.2436 34.5499C68.2436 33.6211 67.9253 32.8974 67.2886 32.3787C66.6636 31.86 65.5581 31.3233 63.9722 30.7684C62.3864 30.2135 61.0899 29.6768 60.0828 29.1581C56.807 27.4814 55.169 25.1776 55.169 22.2464C55.169 20.7869 55.5742 19.5023 56.3845 18.3926C57.2063 17.2708 58.3639 16.4023 59.8571 15.7871C61.3504 15.1599 63.0288 14.8463 64.8925 14.8463C66.7099 14.8463 68.3362 15.184 69.7716 15.8595C71.2185 16.535 72.3414 17.4999 73.1401 18.7544C73.9388 19.9968 74.3382 21.4202 74.3382 23.0244H68.261C68.261 21.9509 67.9427 21.1186 67.306 20.5276C66.6809 19.9365 65.8301 19.641 64.7536 19.641C63.6655 19.641 62.8031 19.8943 62.1664 20.4009C61.5414 20.8955 61.2288 21.5287 61.2288 22.3007C61.2288 22.9762 61.5761 23.5914 62.2706 24.1462C62.9652 24.689 64.1864 25.256 65.9343 25.847C67.6822 26.426 69.1176 27.0532 70.2404 27.7287C72.9722 29.3692 74.3382 31.6308 74.3382 34.5137C74.3382 36.8176 73.5047 38.6269 71.8378 39.9417C70.1709 41.2565 67.8848 41.9139 64.9793 41.9139C62.9304 41.9139 61.0726 41.5339 59.4057 40.774C57.7504 40.002 56.5002 38.9526 55.6552 37.6258C54.8217 36.2869 54.405 34.7489 54.405 33.012H60.5169C60.5169 34.4233 60.8642 35.4666 61.5587 36.1421C62.2648 36.8055 63.405 37.1373 64.9793 37.1373C65.9864 37.1373 66.7793 36.9141 67.3581 36.4678C67.9484 36.0094 68.2436 35.3701 68.2436 34.5499Z" fill="#2E3192"/>
<path d="M97.2925 15.2081V19.4058C98.1375 19.3455 98.7915 19.1464 99.2546 18.8087C99.7176 18.471 100.047 17.9945 100.244 17.3793C100.441 16.7521 100.539 15.5398 100.539 13.7426H104.099C104.099 16.7822 103.549 18.9595 102.449 20.2743C101.361 21.589 99.6423 22.2887 97.2925 22.3731V32.4511C97.2925 34.4052 96.8931 36.0999 96.0944 37.5353C95.2957 38.9586 94.1497 40.0443 92.6565 40.7921C91.1632 41.54 89.398 41.9139 87.3607 41.9139C84.2816 41.9139 81.8565 41.0816 80.0854 39.417C78.3144 37.7524 77.4115 35.4727 77.3767 32.5777V15.2081H83.506V32.7044C83.5755 35.5873 84.8603 37.0287 87.3607 37.0287C88.6224 37.0287 89.5774 36.6668 90.2256 35.9431C90.8738 35.2194 91.198 34.0433 91.198 32.4149V15.2081H97.2925ZM88.906 7.9346H95.0874L90.2603 13.6159H85.4854L88.906 7.9346Z" fill="#2E3192"/>
<path d="M123.511 32.632C123.43 34.4655 122.956 36.0878 122.087 37.4991C121.219 38.8983 119.998 39.9839 118.424 40.7559C116.861 41.5279 115.073 41.9139 113.058 41.9139C109.736 41.9139 107.12 40.7861 105.21 38.5304C103.3 36.2748 102.345 33.0904 102.345 28.9772V27.6744C102.345 25.0931 102.774 22.8375 103.63 20.9075C104.498 18.9655 105.743 17.4698 107.363 16.4204C108.984 15.3589 110.859 14.8282 112.989 14.8282C116.056 14.8282 118.522 15.6725 120.386 17.3612C122.249 19.0379 123.309 21.3538 123.563 24.3091H117.486C117.44 22.7048 117.052 21.5529 116.323 20.8532C115.593 20.1536 114.482 19.8038 112.989 19.8038C111.473 19.8038 110.361 20.3949 109.655 21.577C108.949 22.7591 108.579 24.6468 108.544 27.2402V29.1038C108.544 31.9143 108.88 33.9227 109.551 35.1289C110.234 36.3351 111.403 36.9382 113.058 36.9382C114.459 36.9382 115.53 36.5945 116.271 35.9069C117.011 35.2194 117.405 34.1277 117.451 32.632H123.511Z" fill="#2E3192"/>
<path d="M143.844 31.7454L141.343 34.6042V41.552H135.249V15.2081H141.343V26.824L143.462 23.4768L148.914 15.2081H156.449L147.907 26.8602L156.449 41.552H149.226L143.844 31.7454Z" fill="#2E3192"/>
<path d="M179.126 41.552H173.066V30.5513H164.089V41.552H157.995V15.2081H164.089V25.6661H173.066V15.2081H179.126V41.552Z" fill="#2E3192"/>
<path d="M204.407 28.9229C204.407 31.4921 203.95 33.7659 203.035 35.7441C202.121 37.7223 200.819 39.2481 199.129 40.3217C197.45 41.3832 195.534 41.9139 193.381 41.9139C191.228 41.9139 189.318 41.4012 187.651 40.376C185.984 39.3386 184.682 37.861 183.745 35.9431C182.819 34.0252 182.332 31.8238 182.286 29.339V27.8554C182.286 25.2741 182.738 23.0003 183.64 21.0342C184.555 19.056 185.857 17.5301 187.547 16.4566C189.249 15.383 191.182 14.8463 193.347 14.8463C195.488 14.8463 197.398 15.377 199.076 16.4385C200.755 17.4999 202.057 19.0138 202.983 20.9799C203.921 22.934 204.395 25.1776 204.407 27.7106V28.9229ZM198.208 27.8192C198.208 25.2017 197.786 23.2174 196.941 21.8665C196.107 20.5034 194.909 19.8219 193.347 19.8219C190.291 19.8219 188.676 22.2102 188.502 26.9869L188.485 28.9229C188.485 31.5042 188.896 33.4884 189.718 34.8756C190.539 36.2627 191.761 36.9563 193.381 36.9563C194.921 36.9563 196.107 36.2748 196.941 34.9118C197.774 33.5487 198.197 31.5886 198.208 29.0314V27.8192ZM191.037 13.0188L190.655 10.7391C192.241 10.6667 193.034 10.2867 193.034 9.59919C193.034 8.80308 192.253 8.40503 190.69 8.40503L190.811 5.78149C193.219 5.78149 195.037 6.09511 196.264 6.72235C197.491 7.34958 198.104 8.2241 198.104 9.34588C198.104 10.0214 197.873 10.5883 197.41 11.0467C196.947 11.493 196.31 11.7764 195.5 11.897V13.0188H191.037Z" fill="#2E3192"/>
<path d="M223.229 30.3884H213.644V36.6668H224.965V41.552H207.55V15.2081H225V20.1114H213.644V25.6661H223.229V30.3884Z" fill="#2E3192"/>
<path d="M67.4623 72.9064H63.7332L58.2196 62.8187V72.9064H54.4691V56.6948H58.2196L63.7225 66.7825V56.6948H67.4623V72.9064Z" fill="#2E3192"/>
<path d="M82.5711 70.9022C81.9941 71.5703 81.1499 72.1084 80.0387 72.5167C78.9274 72.9249 77.7093 73.1291 76.3844 73.1291C74.3471 73.1291 72.7194 72.4796 71.5012 71.1806C70.2831 69.8816 69.6313 68.0741 69.5459 65.7581L69.5352 64.3552C69.5352 62.7593 69.8059 61.3675 70.3473 60.1798C70.8886 58.9847 71.6615 58.068 72.6659 57.4296C73.6775 56.7838 74.8457 56.4609 76.1707 56.4609C78.1082 56.4609 79.6113 56.9249 80.6798 57.8527C81.7554 58.7732 82.3823 60.1501 82.5604 61.9836H78.9488C78.8206 61.078 78.5428 60.4322 78.1153 60.0462C77.6879 59.6602 77.0825 59.4672 76.2989 59.4672C75.3586 59.4672 74.632 59.8829 74.1191 60.7143C73.6062 61.5456 73.3462 62.7333 73.3391 64.2773V65.2571C73.3391 66.8753 73.6027 68.0926 74.1298 68.9092C74.664 69.7183 75.5011 70.1228 76.6408 70.1228C77.6167 70.1228 78.3433 69.8964 78.8206 69.4436V66.9272H76.2134V64.2439H82.5711V70.9022Z" fill="#2E3192"/>
<path d="M96.9532 56.6948V59.2779C97.4733 59.2408 97.8757 59.1183 98.1607 58.9105C98.4456 58.7027 98.6486 58.4095 98.7697 58.0309C98.8908 57.6449 98.9514 56.8989 98.9514 55.7929H101.142C101.142 57.6635 100.803 59.0033 100.127 59.8124C99.4571 60.6215 98.3993 61.052 96.9532 61.104V67.3058C96.9532 68.5083 96.7075 69.5512 96.216 70.4346C95.7245 71.3105 95.0192 71.9785 94.1003 72.4388C93.1814 72.899 92.0951 73.1291 90.8413 73.1291C88.9465 73.1291 87.4542 72.6169 86.3643 71.5925C85.2744 70.5682 84.7188 69.1652 84.6974 67.3838V56.6948H88.4692V67.4617C88.512 69.2358 89.3027 70.1228 90.8413 70.1228C91.6178 70.1228 92.2055 69.9001 92.6044 69.4547C93.0033 69.0094 93.2028 68.2856 93.2028 67.2835V56.6948H96.9532Z" fill="#2E3192"/>
<path d="M113.708 65.1346C113.708 66.7231 113.423 68.126 112.853 69.3434C112.29 70.5608 111.489 71.496 110.449 72.1493C109.416 72.8025 108.237 73.1291 106.912 73.1291C105.587 73.1291 104.411 72.8099 103.386 72.1715C102.36 71.5332 101.559 70.6201 100.982 69.4325C100.412 68.2448 100.116 66.879 100.095 65.335V64.4777C100.095 62.8818 100.372 61.4788 100.928 60.2689C101.491 59.059 102.289 58.1237 103.322 57.463C104.362 56.8024 105.551 56.4721 106.89 56.4721C107.909 56.4721 108.842 56.6651 109.69 57.0511C110.538 57.437 111.268 57.9938 111.88 58.7212C112.265 58.5802 112.546 58.2758 112.725 57.8082C112.91 57.3331 113.002 56.5908 113.002 55.5813H115.182C115.182 58.1793 114.42 59.7753 112.895 60.3691C113.43 61.5493 113.7 62.904 113.708 64.4331V65.1346ZM109.893 64.4554C109.893 62.8446 109.633 61.6236 109.113 60.7922C108.593 59.9534 107.852 59.534 106.89 59.534C105.017 59.534 104.027 61.0038 103.92 63.9432L103.909 65.1346C103.909 66.7305 104.159 67.9553 104.657 68.8089C105.163 69.6552 105.915 70.0783 106.912 70.0783C107.866 70.0783 108.6 69.6589 109.113 68.8201C109.626 67.9813 109.886 66.7751 109.893 65.2014V64.4554ZM108.621 55.7706H105.694L102.68 52.2744H106.484L108.621 55.7706Z" fill="#2E3192"/>
<path d="M120.033 72.9064H116.293V56.6948H120.033V72.9064Z" fill="#2E3192"/>
<path d="M140.677 67.4172C140.627 68.5454 140.335 69.5438 139.801 70.4123C139.266 71.2734 138.515 71.9414 137.546 72.4165C136.584 72.8915 135.484 73.1291 134.244 73.1291C132.2 73.1291 130.59 72.435 129.415 71.047C128.239 69.6589 127.652 67.6992 127.652 65.168V64.3663C127.652 62.7778 127.915 61.3898 128.442 60.2021C128.977 59.007 129.742 58.0866 130.74 57.4408C131.737 56.7875 132.891 56.4609 134.202 56.4609C136.089 56.4609 137.607 56.9805 138.754 58.0197C139.9 59.0515 140.552 60.4767 140.709 62.2953H136.969C136.941 61.3081 136.702 60.5992 136.253 60.1687C135.804 59.7382 135.121 59.5229 134.202 59.5229C133.268 59.5229 132.585 59.8866 132.15 60.6141C131.716 61.3415 131.488 62.5032 131.466 64.0991V65.246C131.466 66.9755 131.673 68.2114 132.086 68.9537C132.506 69.696 133.226 70.0671 134.244 70.0671C135.106 70.0671 135.765 69.8556 136.221 69.4325C136.677 69.0094 136.919 68.3376 136.948 67.4172H140.677Z" fill="#2E3192"/>
<path d="M151.287 69.8778H146.148L145.25 72.9064H141.243L146.949 56.6948H150.475L156.224 72.9064H152.195L151.287 69.8778ZM147.045 66.8604H150.39L148.712 61.2376L147.045 66.8604Z" fill="#2E3192"/>
<path d="M170.307 65.1346C170.307 66.7157 170.025 68.1149 169.463 69.3323C168.9 70.5496 168.098 71.4886 167.058 72.1493C166.026 72.8025 164.847 73.1291 163.522 73.1291C162.197 73.1291 161.021 72.8136 159.996 72.1827C158.97 71.5443 158.168 70.635 157.591 69.4547C157.022 68.2745 156.722 66.9198 156.694 65.3907V64.4777C156.694 62.8892 156.972 61.49 157.527 60.28C158.09 59.0627 158.891 58.1237 159.931 57.463C160.979 56.8024 162.168 56.4721 163.5 56.4721C164.818 56.4721 165.993 56.7987 167.026 57.4519C168.059 58.1051 168.861 59.0367 169.431 60.2466C170.008 61.4491 170.3 62.8298 170.307 64.3886V65.1346ZM166.492 64.4554C166.492 62.8446 166.232 61.6236 165.712 60.7922C165.199 59.9534 164.462 59.534 163.5 59.534C161.62 59.534 160.626 61.0038 160.519 63.9432L160.508 65.1346C160.508 66.7231 160.761 67.9442 161.267 68.7978C161.773 69.6514 162.524 70.0783 163.522 70.0783C164.469 70.0783 165.199 69.6589 165.712 68.8201C166.225 67.9813 166.485 66.7751 166.492 65.2014V64.4554Z" fill="#2E3192"/>
<path d="M189.262 59.7122H184.593V72.9064H180.842V59.7122H176.258V56.6948H189.262V59.7122Z" fill="#2E3192"/>
<path d="M203.057 56.6948V67.3058C203.057 68.5083 202.811 69.5512 202.319 70.4346C201.828 71.3105 201.123 71.9785 200.204 72.4388C199.285 72.899 198.198 73.1291 196.945 73.1291C195.05 73.1291 193.558 72.6169 192.468 71.5925C191.378 70.5682 190.822 69.1652 190.801 67.3838V56.6948H194.573V67.4617C194.615 69.2358 195.406 70.1228 196.945 70.1228C197.721 70.1228 198.309 69.9001 198.708 69.4547C199.107 69.0094 199.306 68.2856 199.306 67.2835V56.6948H203.057Z" fill="#2E3192"/>
<path d="M218.582 65.1346C218.582 66.7157 218.301 68.1149 217.738 69.3323C217.175 70.5496 216.374 71.4886 215.334 72.1493C214.301 72.8025 213.122 73.1291 211.797 73.1291C210.472 73.1291 209.297 72.8136 208.271 72.1827C207.245 71.5443 206.444 70.635 205.867 69.4547C205.297 68.2745 204.998 66.9198 204.969 65.3907V64.4777C204.969 62.8892 205.247 61.49 205.803 60.28C206.365 59.0627 207.167 58.1237 208.207 57.463C209.254 56.8024 210.444 56.4721 211.776 56.4721C213.094 56.4721 214.269 56.7987 215.302 57.4519C216.335 58.1051 217.136 59.0367 217.706 60.2466C218.283 61.4491 218.575 62.8298 218.582 64.3886V65.1346ZM214.768 64.4554C214.768 62.8446 214.508 61.6236 213.988 60.7922C213.475 59.9534 212.737 59.534 211.776 59.534C209.895 59.534 208.901 61.0038 208.795 63.9432L208.784 65.1346C208.784 66.7231 209.037 67.9442 209.543 68.7978C210.048 69.6514 210.8 70.0783 211.797 70.0783C212.745 70.0783 213.475 69.6589 213.988 68.8201C214.5 67.9813 214.76 66.7751 214.768 65.2014V64.4554ZM215.59 55.8931H213.229L211.733 54.6015L210.237 55.8931H207.854L210.878 53.4658H212.588L215.59 55.8931ZM214.586 54.5236L214.372 53.3433C215.191 53.2988 215.601 53.1058 215.601 52.7643C215.601 52.512 215.491 52.3449 215.27 52.2633C215.049 52.1742 214.757 52.1297 214.394 52.1297L214.468 50.7935C215.551 50.7935 216.367 50.9531 216.915 51.2723C217.464 51.5915 217.738 52.0406 217.738 52.6196C217.738 52.9685 217.617 53.2617 217.375 53.4992C217.14 53.7367 216.816 53.8852 216.402 53.9446L216.413 54.5236H214.586Z" fill="#2E3192"/>
<path d="M224.512 72.9064H220.773V56.6948H224.512V72.9064Z" fill="#2E3192"/>
<path fill-rule="evenodd" clip-rule="evenodd" d="M15.1647 0.00411968C18.3733 -0.158766 18.6084 4.55859 16.0508 5.26737C14.0784 5.81386 12.7438 2.98537 13.7091 1.20716C14.054 0.571963 14.5847 0.374395 15.1647 0.00411968Z" fill="#EF9C00"/>
<path fill-rule="evenodd" clip-rule="evenodd" d="M29.0245 1.88382C31.7728 1.82097 32.0418 6.20243 29.7207 6.84625C27.8513 7.36468 26.5679 4.85825 27.4423 3.08686C27.7823 2.39833 28.369 2.21911 29.0245 1.88382Z" fill="#0572E9"/>
<path fill-rule="evenodd" clip-rule="evenodd" d="M21.4302 5.26743C22.3582 5.29248 23.2866 5.31754 24.2147 5.3426C24.1725 5.36766 24.1304 5.39272 24.0882 5.41778C22.0551 7.27938 19.8727 8.54718 18.5189 11.2073C16.282 15.6028 17.5103 23.2669 18.2657 28.1246C18.2236 28.0995 18.1814 28.0745 18.1392 28.0494C17.4642 26.5709 16.789 25.0919 16.114 23.6133C15.0648 21.0766 14.2562 18.3635 13.5826 15.4178C13.0539 13.1064 13.1562 9.87543 14.1521 8.35012C15.2001 6.74492 17.3105 6.06742 19.2784 5.56814C19.9955 5.4679 20.7129 5.36766 21.4302 5.26743Z" fill="#EF9C00"/>
<path fill-rule="evenodd" clip-rule="evenodd" d="M25.8602 6.99666C28.9082 6.91677 32.9507 9.44114 34.0241 11.5831C25.5178 9.85061 21.0578 16.467 18.772 23.4629C18.7509 23.4629 18.7298 23.4629 18.7087 23.4629C18.8189 18.4203 20.9738 10.337 23.4553 8.12453C24.1571 7.49875 24.953 7.45595 25.8602 6.99666Z" fill="#0572E9"/>
<path fill-rule="evenodd" clip-rule="evenodd" d="M12.1902 7.67343C12.2535 7.67343 12.3168 7.67343 12.38 7.67343C11.9809 9.31973 11.4288 10.9896 11.1143 12.8614C9.79896 20.692 15.1732 28.2033 18.3924 31.2826C19.1517 32.0594 19.9113 32.8366 20.6706 33.6134C19.5375 33.388 18.4473 32.4485 17.5063 31.8841C13.7392 29.6245 10.1239 27.373 7.31711 23.9893C6.45821 22.9538 4.75145 21.0046 5.16536 18.6509C5.87417 14.6203 7.79864 11.6248 10.1018 9.4779C10.7978 8.87648 11.4941 8.27485 12.1902 7.67343Z" fill="#00A650"/>
<path fill-rule="evenodd" clip-rule="evenodd" d="M2.63389 9.10198C6.48614 9.04344 6.51407 15.1884 3.14018 15.8689C1.16367 16.2676 -0.549729 13.6818 0.165693 11.3576C0.602877 9.93736 1.44675 9.67233 2.63389 9.10198Z" fill="#00A650"/>
<path fill-rule="evenodd" clip-rule="evenodd" d="M30.227 13.2373C32.119 13.1586 33.2513 14.5481 32.8218 16.9215C32.8429 16.9215 32.864 16.9215 32.885 16.9215C32.885 16.8714 32.885 16.8213 32.885 16.7711C34.6458 14.7884 37.8067 15.6966 36.6823 19.3275C35.955 21.6759 32.7565 21.6461 32.4421 24.2899C32.421 24.2899 32.3999 24.2899 32.3788 24.2899C31.8851 20.6665 27.9731 20.6537 28.5815 16.2448C28.8521 14.2844 29.0225 14.0176 30.227 13.2373Z" fill="#ED1C24"/>
<path fill-rule="evenodd" clip-rule="evenodd" d="M30.227 15.7937C30.1004 15.8438 29.9738 15.8939 29.8472 15.9441C28.7088 18.6688 30.8453 20.3392 31.7458 21.8088C31.9568 22.4103 32.1678 23.0119 32.3788 23.6133C32.6329 21.366 34.9963 21.6401 35.2266 19.5531C35.4492 17.5367 32.9323 16.9102 32.442 18.6509C32.421 18.6509 32.3999 18.6509 32.3788 18.6509C32.402 16.9441 31.6959 15.7475 30.227 15.7937Z" fill="#B8AFE0"/>
<path d="M4.53821 77.7455H5.81136V80.2495H8.27919V77.7455H9.56107V84.2093H8.27919V81.453H5.81136V84.2093H4.53821V77.7455Z" fill="#2E3192"/>
<path d="M11.688 77.7455L15.6571 77.835V78.9684H12.935V80.2592H15.2032V81.4433H12.935V82.9865H15.5814V84.2094L11.688 84.2093V77.7455Z" fill="#2E3192"/>
<path d="M19.1715 77.7456H20.6888L22.8427 84.2094H21.5347L21.0638 82.7342H18.7791L18.3343 84.2094H17.0437L19.1715 77.7456ZM20.6888 81.5307L19.904 79.0559L19.1453 81.5307H20.6888Z" fill="#2E3192"/>
<path d="M24.4657 77.7451H25.7301V82.986H28.2887V84.2089H24.4657V77.7451Z" fill="#2E3192"/>
<path d="M30.5893 79.0559H29.0022V77.833H33.4321V79.0559H31.8624V84.2968H30.5893V79.0559Z" fill="#2E3192"/>
<path d="M35.2167 77.7456H36.4898V80.2496H38.9577V77.7456H40.2395V84.2094H38.9577V81.4531H36.4898V84.2094H35.2167V77.7456Z" fill="#2E3192"/>
<path fill-rule="evenodd" clip-rule="evenodd" d="M3.96294 23.7636C4.51719 24.1971 5.40992 26.3394 6.17798 27.072C7.68269 28.5071 9.4842 29.7167 11.3042 30.7562C16.7536 33.8685 23.1831 35.6622 28.8347 38.4254C31.2243 39.5937 33.585 40.6553 35.4799 42.4103C36.856 43.6851 37.9919 45.9497 38.5809 48.1247C39.6158 51.9463 38.9161 57.064 37.7581 60.0045C36.6507 62.8165 35.4514 65.2708 33.518 67.0722C28.4642 71.7804 18.3878 73.6942 10.4815 70.7564C8.17542 69.8995 5.64957 69.2312 3.96294 67.5984C5.54495 63.3382 7.12744 59.0767 8.70942 54.8165C11.6485 56.3875 18.1592 59.015 22.3162 57.3728C23.8487 56.7675 26.1953 54.9589 25.2274 52.1097C24.1003 48.7917 18.1079 47.0451 15.0382 45.7187C8.47284 42.8818 5.09345 38.5135 3.89965 29.1772C3.70237 27.6344 3.62542 25.3 3.96294 23.7636Z" fill="#2E3192"/>
</svg>
